<?xml version="1.0" encoding="UTF-8" standalone="no"?>
<!-- Created with Inkscape (http://www.inkscape.org/) -->

<svg
   width="120"
   height="120"
   viewBox="0 0 31.749999 31.75"
   version="1.1"
   id="svg1"
   sodipodi:docname="logo.svg"
   inkscape:version="1.3.2 (091e20ef0f, 2023-11-25, custom)"
   inkscape:export-filename="logo.png"
   inkscape:export-xdpi="96"
   inkscape:export-ydpi="96"
   xmlns:inkscape="http://www.inkscape.org/namespaces/inkscape"
   xmlns:sodipodi="http://sodipodi.sourceforge.net/DTD/sodipodi-0.dtd"
   xmlns="http://www.w3.org/2000/svg"
   xmlns:svg="http://www.w3.org/2000/svg">
  <sodipodi:namedview
     id="namedview1"
     pagecolor="#ffffff"
     bordercolor="#666666"
     borderopacity="1.0"
     inkscape:showpageshadow="2"
     inkscape:pageopacity="0.0"
     inkscape:pagecheckerboard="0"
     inkscape:deskcolor="#d1d1d1"
     inkscape:document-units="mm"
     inkscape:zoom="4.1549383"
     inkscape:cx="107.22181"
     inkscape:cy="42.359233"
     inkscape:window-width="2560"
     inkscape:window-height="1379"
     inkscape:window-x="0"
     inkscape:window-y="0"
     inkscape:window-maximized="1"
     inkscape:current-layer="layer1" />
  <defs
     id="defs1" />
  <g
     inkscape:label="Layer 1"
     inkscape:groupmode="layer"
     id="layer1">
    <path
       style="fill:#137bc7;fill-opacity:0.82352942;stroke-width:0.294;stroke-dasharray:none"
       id="path25"
       d="m 10.576186,2.004757 c 6e-6,0.1969002 0.0086,0.393989 1.7e-5,0.5906997 -0.03225,0.7353408 -0.142424,1.835564 -0.223833,2.5177341 C 10.2051,6.3472322 10.020415,7.5860074 9.8099175,8.8106019 9.7058925,9.4157827 9.5866424,10.018248 9.475005,10.622071 c -0.2793846,1.403232 -0.5828414,2.802147 -0.9371585,4.188541 -0.1948028,0.762236 -0.4212632,1.515254 -0.6214664,2.275961 -0.093948,0.368811 -0.277922,0.97875 0.2604186,1.135595 0.3333074,0.0971 1.4910945,-0.0021 1.6726582,-0.0112 1.8709551,-0.195979 3.7472251,-0.330711 5.6234531,-0.463043 0,0 2.924252,-2.157946 2.924252,-2.157946 v 0 c -1.721386,0.134632 -3.449057,0.298822 -5.177409,0.177139 -0.279184,-0.02349 -0.558219,-0.04882 -0.837553,-0.07047 -0.13259,-0.01032 -0.265441,-0.01684 -0.398161,-0.02526 -0.0256,0.02569 -0.04129,0.06967 -0.07679,0.07708 -0.09646,0.02012 -0.03018,-0.586325 -0.04427,-0.580064 0.119403,-1.090162 0.317938,-2.167871 0.483328,-3.251613 0.06784,-0.444513 0.128776,-0.890051 0.19348,-1.335031 0.07601,-0.522761 0.152453,-1.0454593 0.228679,-1.5681896 C 12.997011,7.5537372 13.105552,6.7821729 13.387265,5.3137315 13.670998,3.834764 13.809757,3.2543573 14.165737,1.8346255 14.424722,0.80173028 14.414928,0.8598228 14.665914,-6.5672625e-7 Z" />
    <path
       style="fill:#137bc7;fill-opacity:0.82352942;stroke-width:0.293525"
       id="path26"
       d="m 13.268326,12.019987 c 2.02793,-0.179645 4.067337,-0.193146 6.10162,-0.162524 0.481834,0.019 1.15492,0.02474 1.647627,0.112939 0.179542,0.03214 0.663505,0.134153 0.783705,0.360514 0.172566,0.324974 0.0401,1.149265 0.02383,1.379545 -0.388569,2.149945 -1.120439,4.213746 -1.739126,6.302933 -0.506731,1.711135 -0.517788,1.807132 -0.966786,3.518182 -0.616524,2.530526 -1.280716,5.0498 -1.824792,7.597295 -0.04466,0.207042 -0.08933,0.414086 -0.13399,0.62113 0,0 3.909159,-1.918021 3.909159,-1.918021 v 0 c 0.01603,-0.191851 0.03206,-0.383703 0.0481,-0.575554 0.250669,-2.46929 0.739069,-4.905736 1.32781,-7.315525 0.144301,-0.572913 0.280375,-1.147961 0.432902,-1.718739 0.319552,-1.195806 0.670974,-2.375601 1.056771,-3.551759 0.378148,-1.152844 0.81576,-2.285665 1.191242,-3.439379 0.145336,-0.446557 0.266562,-0.900603 0.399842,-1.350906 0.09588,-0.596146 0.336674,-1.318768 0.02698,-1.9220533 C 25.469586,9.7951378 25.279124,9.7049734 25.111339,9.6315631 24.914232,9.5453193 24.695452,9.5143829 24.481774,9.4892763 24.018336,9.4348276 23.068022,9.4729905 22.6398,9.4817325 20.889965,9.5070265 19.130314,9.5199509 17.385056,9.3665038 17.25148,9.3547553 17.118733,9.334975 16.985571,9.3192095 Z" />
    <circle
       style="fill:#137bc7;fill-opacity:0.823529;stroke-width:0.294;stroke-dasharray:none"
       id="path29"
       cx="15.875"
       cy="13.929398"
       r="0.99994069" />
  </g>
</svg>
